<svg width="16" height="14" viewBox="0 0 16 14" fill="none" xmlns="http://www.w3.org/2000/svg">
    <path d="M12.3125 14C12.2073 14.0004 12.1046 13.9676 12.0191 13.9063L8 10.9925L3.98094 13.9063C3.89507 13.9685 3.79163 14.0019 3.68555 14.0015C3.57948 14.0011 3.47628 13.967 3.39087 13.9041C3.30546 13.8412 3.24227 13.7528 3.21043 13.6516C3.17859 13.5504 3.17975 13.4417 3.21375 13.3413L4.78125 8.69844L0.718748 5.9125C0.630752 5.85223 0.564337 5.76539 0.529208 5.66468C0.494079 5.56397 0.492077 5.45466 0.523494 5.35273C0.55491 5.2508 0.6181 5.16159 0.70383 5.09813C0.78956 5.03467 0.893337 5.00028 0.999998 5H6.01187L7.52437 0.345317C7.55696 0.244823 7.62053 0.157233 7.70598 0.0951107C7.79143 0.0329884 7.89436 -0.000473022 8 -0.000473022C8.10564 -0.000473022 8.20857 0.0329884 8.29402 0.0951107C8.37947 0.157233 8.44304 0.244823 8.47562 0.345317L9.98812 5.00157H15C15.1068 5.00151 15.2108 5.03566 15.2968 5.099C15.3828 5.16233 15.4462 5.25154 15.4778 5.35355C15.5094 5.45556 15.5076 5.56501 15.4725 5.66587C15.4374 5.76674 15.3709 5.85371 15.2828 5.91407L11.2187 8.69844L12.7853 13.34C12.8107 13.4152 12.8178 13.4953 12.8061 13.5737C12.7944 13.6522 12.7643 13.7267 12.7181 13.7912C12.6719 13.8557 12.611 13.9082 12.5405 13.9445C12.47 13.9809 12.3918 13.9999 12.3125 14Z" fill="black"/>
</svg>
